<?xml version="1.0" encoding="UTF-8" standalone="no"?>
<!DOCTYPE svg PUBLIC "-//W3C//DTD SVG 1.1//EN"
 "http://www.w3.org/Graphics/SVG/1.1/DTD/svg11.dtd">
<!-- Generated by graphviz version 2.43.0 (0)
 -->
<!-- Title: DecisionPilot Pages: 1 -->
<svg width="1495pt" height="595pt"
 viewBox="0.00 0.00 1495.10 595.10" xmlns="http://www.w3.org/2000/svg" xmlns:xlink="http://www.w3.org/1999/xlink">
<g id="graph0" class="graph" transform="scale(1 1) rotate(0) translate(28.8 566.3)">
<title>DecisionPilot</title>
<polygon fill="#f5f7f3" stroke="transparent" points="-28.8,28.8 -28.8,-566.3 1466.3,-566.3 1466.3,28.8 -28.8,28.8"/>
<text text-anchor="middle" x="718.75" y="-514.3" font-family="Arial" font-size="24.00" fill="#183b31">DecisionPilot AI | AWS Architecture</text>
<g id="clust1" class="cluster">
<title>cluster_host</title>
<path fill="#f5f7f3" stroke="#c1d3c6" d="M176.5,-110.5C176.5,-110.5 1237.5,-110.5 1237.5,-110.5 1243.5,-110.5 1249.5,-116.5 1249.5,-122.5 1249.5,-122.5 1249.5,-313.5 1249.5,-313.5 1249.5,-319.5 1243.5,-325.5 1237.5,-325.5 1237.5,-325.5 176.5,-325.5 176.5,-325.5 170.5,-325.5 164.5,-319.5 164.5,-313.5 164.5,-313.5 164.5,-122.5 164.5,-122.5 164.5,-116.5 170.5,-110.5 176.5,-110.5"/>
<text text-anchor="middle" x="707" y="-302.3" font-family="Arial" font-size="24.00" fill="#59745e">AMAZON EC2 | APPLICATION</text>
</g>
<!-- ui -->
<g id="node1" class="node">
<title>ui</title>
<path fill="white" stroke="#b9cec2" d="M279,-503.5C279,-503.5 12,-503.5 12,-503.5 6,-503.5 0,-497.5 0,-491.5 0,-491.5 0,-463.5 0,-463.5 0,-457.5 6,-451.5 12,-451.5 12,-451.5 279,-451.5 279,-451.5 285,-451.5 291,-457.5 291,-463.5 291,-463.5 291,-491.5 291,-491.5 291,-497.5 285,-503.5 279,-503.5"/>
<text text-anchor="middle" x="145.5" y="-481.1" font-family="Arial" font-size="13.00" fill="#16382d">USER / BROWSER</text>
<text text-anchor="middle" x="145.5" y="-467.1" font-family="Arial" font-size="13.00" fill="#16382d">Objective, preferences and human decision</text>
</g>
<!-- cdn -->
<g id="node2" class="node">
<title>cdn</title>
<path fill="white" stroke="#b9cec2" d="M1137,-414.5C1137,-414.5 998,-414.5 998,-414.5 992,-414.5 986,-408.5 986,-402.5 986,-402.5 986,-374.5 986,-374.5 986,-368.5 992,-362.5 998,-362.5 998,-362.5 1137,-362.5 1137,-362.5 1143,-362.5 1149,-368.5 1149,-374.5 1149,-374.5 1149,-402.5 1149,-402.5 1149,-408.5 1143,-414.5 1137,-414.5"/>
<text text-anchor="middle" x="1067.5" y="-392.1" font-family="Arial" font-size="13.00" fill="#16382d">Amazon CloudFront</text>
<text text-anchor="middle" x="1067.5" y="-378.1" font-family="Arial" font-size="13.00" fill="#16382d">Public HTTPS access</text>
</g>
<!-- ui&#45;&gt;cdn -->
<g id="edge10" class="edge">
<title>ui&#45;&gt;cdn</title>
<path fill="none" stroke="#628674" d="M250.61,-451.47C285.96,-444.05 325.75,-436.77 362.5,-432.5 615.59,-403.08 682.23,-442.29 935.5,-414.5 949.55,-412.96 964.34,-410.75 978.73,-408.27"/>
<polygon fill="#628674" stroke="#628674" points="979.3,-410.66 985.77,-407.03 978.45,-405.83 979.3,-410.66"/>
</g>
<!-- human -->
<g id="node7" class="node">
<title>human</title>
<path fill="#fff1d1" stroke="#c1a15a" d="M476.5,-170.5C476.5,-170.5 206.5,-170.5 206.5,-170.5 200.5,-170.5 194.5,-164.5 194.5,-158.5 194.5,-158.5 194.5,-130.5 194.5,-130.5 194.5,-124.5 200.5,-118.5 206.5,-118.5 206.5,-118.5 476.5,-118.5 476.5,-118.5 482.5,-118.5 488.5,-124.5 488.5,-130.5 488.5,-130.5 488.5,-158.5 488.5,-158.5 488.5,-164.5 482.5,-170.5 476.5,-170.5"/>
<text text-anchor="middle" x="341.5" y="-148.1" font-family="Arial" font-size="13.00" fill="#16382d">Human&#45;only decision controller</text>
<text text-anchor="middle" x="341.5" y="-134.1" font-family="Arial" font-size="13.00" fill="#16382d">Session validation + explicit approve / reject</text>
</g>
<!-- ui&#45;&gt;human -->
<g id="edge12" class="edge">
<title>ui&#45;&gt;human</title>
<path fill="none" stroke="#b18b3a" d="M138.54,-451.15C126.45,-401.17 107.4,-288.61 158.5,-217.5 172.46,-198.07 192.49,-183.88 214.23,-173.52"/>
<polygon fill="#b18b3a" stroke="#b18b3a" points="215.36,-175.7 220.71,-170.56 213.32,-171.24 215.36,-175.7"/>
<text text-anchor="middle" x="160.5" y="-336.5" font-family="Arial" font-size="10.00" fill="#4d6c5a">explicit decision</text>
</g>
<!-- controller -->
<g id="node3" class="node">
<title>controller</title>
<path fill="white" stroke="#b9cec2" d="M1229.5,-269.5C1229.5,-269.5 1049.5,-269.5 1049.5,-269.5 1043.5,-269.5 1037.5,-263.5 1037.5,-257.5 1037.5,-257.5 1037.5,-243.5 1037.5,-243.5 1037.5,-237.5 1043.5,-231.5 1049.5,-231.5 1049.5,-231.5 1229.5,-231.5 1229.5,-231.5 1235.5,-231.5 1241.5,-237.5 1241.5,-243.5 1241.5,-243.5 1241.5,-257.5 1241.5,-257.5 1241.5,-263.5 1235.5,-269.5 1229.5,-269.5"/>
<text text-anchor="middle" x="1139.5" y="-247.1" font-family="Arial" font-size="13.00" fill="#16382d">Web UI + workflow controller</text>
</g>
<!-- cdn&#45;&gt;controller -->
<g id="edge11" class="edge">
<title>cdn&#45;&gt;controller</title>
<path fill="none" stroke="#628674" d="M1080.87,-362.24C1093.94,-337.56 1113.69,-300.25 1126.6,-275.87"/>
<polygon fill="#628674" stroke="#628674" points="1128.77,-277 1129.88,-269.67 1124.44,-274.71 1128.77,-277"/>
</g>
<!-- planner -->
<g id="node4" class="node">
<title>planner</title>
<path fill="#e2eee3" stroke="#b9cec2" d="M716,-414.5C716,-414.5 413,-414.5 413,-414.5 407,-414.5 401,-408.5 401,-402.5 401,-402.5 401,-374.5 401,-374.5 401,-368.5 407,-362.5 413,-362.5 413,-362.5 716,-362.5 716,-362.5 722,-362.5 728,-368.5 728,-374.5 728,-374.5 728,-402.5 728,-402.5 728,-408.5 722,-414.5 716,-414.5"/>
<text text-anchor="middle" x="564.5" y="-392.1" font-family="Arial" font-size="13.00" fill="#16382d">Strands SDK planning service</text>
<text text-anchor="middle" x="564.5" y="-378.1" font-family="Arial" font-size="13.00" fill="#16382d">Read&#45;only tools; no approval or execution access</text>
</g>
<!-- controller&#45;&gt;planner -->
<g id="edge1" class="edge">
<title>controller&#45;&gt;planner</title>
<path fill="none" stroke="#628674" d="M1117.3,-269.69C1094.84,-287.04 1058.41,-312.42 1022.5,-325.5 1008.64,-330.55 859.5,-350.26 735.11,-366.13"/>
<polygon fill="#628674" stroke="#628674" points="734.72,-363.71 728.09,-367.02 735.34,-368.57 734.72,-363.71"/>
</g>
<!-- tools -->
<g id="node5" class="node">
<title>tools</title>
<path fill="white" stroke="#b9cec2" d="M384.5,-276.5C384.5,-276.5 184.5,-276.5 184.5,-276.5 178.5,-276.5 172.5,-270.5 172.5,-264.5 172.5,-264.5 172.5,-236.5 172.5,-236.5 172.5,-230.5 178.5,-224.5 184.5,-224.5 184.5,-224.5 384.5,-224.5 384.5,-224.5 390.5,-224.5 396.5,-230.5 396.5,-236.5 396.5,-236.5 396.5,-264.5 396.5,-264.5 396.5,-270.5 390.5,-276.5 384.5,-276.5"/>
<text text-anchor="middle" x="284.5" y="-254.1" font-family="Arial" font-size="13.00" fill="#16382d">Search and evaluation tools</text>
<text text-anchor="middle" x="284.5" y="-240.1" font-family="Arial" font-size="13.00" fill="#16382d">Synthetic appointment inventory</text>
</g>
<!-- planner&#45;&gt;tools -->
<g id="edge2" class="edge">
<title>planner&#45;&gt;tools</title>
<path fill="none" stroke="#628674" d="M489.87,-359.73C464.64,-349.69 436.53,-337.79 411.5,-325.5 383.95,-311.98 354.26,-294.83 330.52,-280.45"/>
<polygon fill="#628674" stroke="#628674" points="489.15,-362.08 496.56,-362.37 490.95,-357.52 489.15,-362.08"/>
<polygon fill="#628674" stroke="#628674" points="331.56,-278.21 324.3,-276.66 329.01,-282.4 331.56,-278.21"/>
</g>
<!-- gate -->
<g id="node6" class="node">
<title>gate</title>
<path fill="#fff1d1" stroke="#c1a15a" stroke-width="2" d="M691.5,-283.5C691.5,-283.5 437.5,-283.5 437.5,-283.5 431.5,-283.5 425.5,-277.5 425.5,-271.5 425.5,-271.5 425.5,-229.5 425.5,-229.5 425.5,-223.5 431.5,-217.5 437.5,-217.5 437.5,-217.5 691.5,-217.5 691.5,-217.5 697.5,-217.5 703.5,-223.5 703.5,-229.5 703.5,-229.5 703.5,-271.5 703.5,-271.5 703.5,-277.5 697.5,-283.5 691.5,-283.5"/>
<text text-anchor="middle" x="564.5" y="-261.1" font-family="Arial" font-size="13.00" fill="#16382d">HUMAN DECISION GATE</text>
<text text-anchor="middle" x="564.5" y="-247.1" font-family="Arial" font-size="13.00" fill="#16382d">Price, reason and alternatives</text>
<text text-anchor="middle" x="564.5" y="-233.1" font-family="Arial" font-size="13.00" fill="#16382d">Persist proposal; wait for human decision</text>
</g>
<!-- planner&#45;&gt;gate -->
<g id="edge3" class="edge">
<title>planner&#45;&gt;gate</title>
<path fill="none" stroke="#628674" d="M564.5,-362.24C564.5,-342.28 564.5,-314.05 564.5,-291.09"/>
<polygon fill="#628674" stroke="#628674" points="566.95,-290.84 564.5,-283.84 562.05,-290.84 566.95,-290.84"/>
<text text-anchor="middle" x="622" y="-336.5" font-family="Arial" font-size="10.00" fill="#4d6c5a">validated recommendation</text>
</g>
<!-- model -->
<g id="node13" class="node">
<title>model</title>
<path fill="#e2eee3" stroke="#b9cec2" d="M909,-414.5C909,-414.5 798,-414.5 798,-414.5 792,-414.5 786,-408.5 786,-402.5 786,-402.5 786,-374.5 786,-374.5 786,-368.5 792,-362.5 798,-362.5 798,-362.5 909,-362.5 909,-362.5 915,-362.5 921,-368.5 921,-374.5 921,-374.5 921,-402.5 921,-402.5 921,-408.5 915,-414.5 909,-414.5"/>
<text text-anchor="middle" x="853.5" y="-392.1" font-family="Arial" font-size="13.00" fill="#16382d">Amazon Bedrock</text>
<text text-anchor="middle" x="853.5" y="-378.1" font-family="Arial" font-size="13.00" fill="#16382d">Nova Lite</text>
</g>
<!-- planner&#45;&gt;model -->
<g id="edge13" class="edge">
<title>planner&#45;&gt;model</title>
<path fill="none" stroke="#628674" d="M735.41,-388.5C749.89,-388.5 764.37,-388.5 778.84,-388.5"/>
<polygon fill="#628674" stroke="#628674" points="735.19,-386.05 728.19,-388.5 735.19,-390.95 735.19,-386.05"/>
<polygon fill="#628674" stroke="#628674" points="778.95,-390.95 785.95,-388.5 778.95,-386.05 778.95,-390.95"/>
</g>
<!-- gate&#45;&gt;human -->
<g id="edge4" class="edge">
<title>gate&#45;&gt;human</title>
<path fill="none" stroke="#628674" d="M495.77,-217.45C465.67,-203.41 430.67,-187.09 401.62,-173.54"/>
<polygon fill="#628674" stroke="#628674" points="402.52,-171.25 395.14,-170.51 400.45,-175.69 402.52,-171.25"/>
<text text-anchor="middle" x="499" y="-191.5" font-family="Arial" font-size="10.00" fill="#4d6c5a">proposal shown in UI</text>
</g>
<!-- storage -->
<g id="node14" class="node">
<title>storage</title>
<path fill="#e5ece4" stroke="#b9cec2" d="M1437.5,-64.8C1437.5,-68.36 1387.75,-71.25 1326.5,-71.25 1265.25,-71.25 1215.5,-68.36 1215.5,-64.8 1215.5,-64.8 1215.5,-6.7 1215.5,-6.7 1215.5,-3.14 1265.25,-0.25 1326.5,-0.25 1387.75,-0.25 1437.5,-3.14 1437.5,-6.7 1437.5,-6.7 1437.5,-64.8 1437.5,-64.8"/>
<path fill="none" stroke="#b9cec2" d="M1437.5,-64.8C1437.5,-61.24 1387.75,-58.34 1326.5,-58.34 1265.25,-58.34 1215.5,-61.24 1215.5,-64.8"/>
<text text-anchor="middle" x="1326.5" y="-39.35" font-family="Arial" font-size="13.00" fill="#16382d">SQLite state, audit and receipts</text>
<text text-anchor="middle" x="1326.5" y="-25.35" font-family="Arial" font-size="13.00" fill="#16382d">Encrypted Amazon EBS volume</text>
</g>
<!-- gate&#45;&gt;storage -->
<g id="edge14" class="edge">
<title>gate&#45;&gt;storage</title>
<path fill="none" stroke="#628674" d="M433.66,-217.23C423.79,-209.4 421.42,-199.91 432.5,-188.5 455.76,-164.53 1004.02,-186.2 1033.5,-170.5 1062.46,-155.08 1049.76,-129.51 1076.5,-110.5 1098.61,-94.79 1154.83,-77.62 1208.36,-63.8"/>
<polygon fill="#628674" stroke="#628674" points="1209.04,-66.16 1215.22,-62.05 1207.83,-61.41 1209.04,-66.16"/>
<text text-anchor="middle" x="1091.5" y="-142" font-family="Arial" font-size="10.00" fill="#4d6c5a">persist</text>
</g>
<!-- execute -->
<g id="node8" class="node">
<title>execute</title>
<path fill="white" stroke="#b9cec2" d="M1146,-61.75C1146,-61.75 897,-61.75 897,-61.75 891,-61.75 885,-55.75 885,-49.75 885,-49.75 885,-21.75 885,-21.75 885,-15.75 891,-9.75 897,-9.75 897,-9.75 1146,-9.75 1146,-9.75 1152,-9.75 1158,-15.75 1158,-21.75 1158,-21.75 1158,-49.75 1158,-49.75 1158,-55.75 1152,-61.75 1146,-61.75"/>
<text text-anchor="middle" x="1021.5" y="-39.35" font-family="Arial" font-size="13.00" fill="#16382d">Idempotent execution</text>
<text text-anchor="middle" x="1021.5" y="-25.35" font-family="Arial" font-size="13.00" fill="#16382d">Approved proposal &#45;&gt; simulated booking</text>
</g>
<!-- human&#45;&gt;execute -->
<g id="edge5" class="edge">
<title>human&#45;&gt;execute</title>
<path fill="none" stroke="#628674" d="M460.34,-118.45C474.86,-115.64 489.5,-112.92 503.5,-110.5 629.5,-88.72 773.55,-68.59 877.71,-54.89"/>
<polygon fill="#628674" stroke="#628674" points="878.2,-57.29 884.82,-53.95 877.56,-52.43 878.2,-57.29"/>
<text text-anchor="middle" x="650.5" y="-92.5" font-family="Arial" font-size="10.00" fill="#4d6c5a">approved</text>
</g>
<!-- stop -->
<g id="node11" class="node">
<title>stop</title>
<path fill="white" stroke="#b9cec2" d="M416.5,-61.75C416.5,-61.75 266.5,-61.75 266.5,-61.75 260.5,-61.75 254.5,-55.75 254.5,-49.75 254.5,-49.75 254.5,-21.75 254.5,-21.75 254.5,-15.75 260.5,-9.75 266.5,-9.75 266.5,-9.75 416.5,-9.75 416.5,-9.75 422.5,-9.75 428.5,-15.75 428.5,-21.75 428.5,-21.75 428.5,-49.75 428.5,-49.75 428.5,-55.75 422.5,-61.75 416.5,-61.75"/>
<text text-anchor="middle" x="341.5" y="-39.35" font-family="Arial" font-size="13.00" fill="#16382d">REJECTED / EXPIRED</text>
<text text-anchor="middle" x="341.5" y="-25.35" font-family="Arial" font-size="13.00" fill="#16382d">No booking</text>
</g>
<!-- human&#45;&gt;stop -->
<g id="edge6" class="edge">
<title>human&#45;&gt;stop</title>
<path fill="none" stroke="#628674" d="M341.5,-118.47C341.5,-103.72 341.5,-84.9 341.5,-69.04"/>
<polygon fill="#628674" stroke="#628674" points="343.95,-68.99 341.5,-61.99 339.05,-68.99 343.95,-68.99"/>
<text text-anchor="middle" x="379.5" y="-92.5" font-family="Arial" font-size="10.00" fill="#4d6c5a">rejected / expired</text>
</g>
<!-- human&#45;&gt;storage -->
<g id="edge15" class="edge">
<title>human&#45;&gt;storage</title>
<path fill="none" stroke="#628674" d="M454.01,-118.42C470.54,-115.36 487.42,-112.59 503.5,-110.5 580.32,-100.52 600.17,-104.99 677.5,-100.5 897.51,-87.73 954.29,-102.3 1172.5,-71.5 1184.18,-69.85 1196.29,-67.77 1208.35,-65.46"/>
<polygon fill="#628674" stroke="#628674" points="1209.05,-67.82 1215.45,-64.07 1208.11,-63.01 1209.05,-67.82"/>
</g>
<!-- verify -->
<g id="node9" class="node">
<title>verify</title>
<path fill="white" stroke="#b9cec2" d="M996,-276.5C996,-276.5 745,-276.5 745,-276.5 739,-276.5 733,-270.5 733,-264.5 733,-264.5 733,-236.5 733,-236.5 733,-230.5 739,-224.5 745,-224.5 745,-224.5 996,-224.5 996,-224.5 1002,-224.5 1008,-230.5 1008,-236.5 1008,-236.5 1008,-264.5 1008,-264.5 1008,-270.5 1002,-276.5 996,-276.5"/>
<text text-anchor="middle" x="870.5" y="-254.1" font-family="Arial" font-size="13.00" fill="#16382d">Verification</text>
<text text-anchor="middle" x="870.5" y="-240.1" font-family="Arial" font-size="13.00" fill="#16382d">Compare receipt, provider, slot and price</text>
</g>
<!-- execute&#45;&gt;verify -->
<g id="edge7" class="edge">
<title>execute&#45;&gt;verify</title>
<path fill="none" stroke="#628674" d="M1068.12,-61.88C1085.73,-74.03 1103.84,-90.38 1113.5,-110.5 1125.04,-134.54 1129.17,-148.92 1113.5,-170.5 1098.56,-191.07 1048.3,-209.05 997.33,-222.64"/>
<polygon fill="#628674" stroke="#628674" points="996.61,-220.3 990.46,-224.45 997.86,-225.04 996.61,-220.3"/>
</g>
<!-- execute&#45;&gt;storage -->
<g id="edge16" class="edge">
<title>execute&#45;&gt;storage</title>
<path fill="none" stroke="#628674" d="M1158.21,-35.75C1174.89,-35.75 1191.58,-35.75 1208.26,-35.75"/>
<polygon fill="#628674" stroke="#628674" points="1208.4,-38.2 1215.4,-35.75 1208.4,-33.3 1208.4,-38.2"/>
</g>
<!-- complete -->
<g id="node10" class="node">
<title>complete</title>
<path fill="#153e34" stroke="#b9cec2" d="M1006.5,-170.5C1006.5,-170.5 734.5,-170.5 734.5,-170.5 728.5,-170.5 722.5,-164.5 722.5,-158.5 722.5,-158.5 722.5,-130.5 722.5,-130.5 722.5,-124.5 728.5,-118.5 734.5,-118.5 734.5,-118.5 1006.5,-118.5 1006.5,-118.5 1012.5,-118.5 1018.5,-124.5 1018.5,-130.5 1018.5,-130.5 1018.5,-158.5 1018.5,-158.5 1018.5,-164.5 1012.5,-170.5 1006.5,-170.5"/>
<text text-anchor="middle" x="870.5" y="-148.1" font-family="Arial" font-size="13.00" fill="white">COMPLETED</text>
<text text-anchor="middle" x="870.5" y="-134.1" font-family="Arial" font-size="13.00" fill="white">Audit trail + estimated human minutes saved</text>
</g>
<!-- verify&#45;&gt;complete -->
<g id="edge8" class="edge">
<title>verify&#45;&gt;complete</title>
<path fill="none" stroke="#628674" d="M870.5,-224.32C870.5,-210.38 870.5,-192.88 870.5,-177.92"/>
<polygon fill="#628674" stroke="#628674" points="872.95,-177.8 870.5,-170.8 868.05,-177.8 872.95,-177.8"/>
<text text-anchor="middle" x="884.5" y="-191.5" font-family="Arial" font-size="10.00" fill="#4d6c5a">match</text>
</g>
<!-- failed -->
<g id="node12" class="node">
<title>failed</title>
<path fill="#f5e7de" stroke="#b9cec2" d="M681,-170.5C681,-170.5 530,-170.5 530,-170.5 524,-170.5 518,-164.5 518,-158.5 518,-158.5 518,-130.5 518,-130.5 518,-124.5 524,-118.5 530,-118.5 530,-118.5 681,-118.5 681,-118.5 687,-118.5 693,-124.5 693,-130.5 693,-130.5 693,-158.5 693,-158.5 693,-164.5 687,-170.5 681,-170.5"/>
<text text-anchor="middle" x="605.5" y="-148.1" font-family="Arial" font-size="13.00" fill="#16382d">VERIFICATION FAILED</text>
<text text-anchor="middle" x="605.5" y="-134.1" font-family="Arial" font-size="13.00" fill="#16382d">No completion claim</text>
</g>
<!-- verify&#45;&gt;failed -->
<g id="edge9" class="edge">
<title>verify&#45;&gt;failed</title>
<path fill="none" stroke="#628674" d="M806.69,-224.46C767.23,-208.97 716.53,-189.08 675.9,-173.13"/>
<polygon fill="#628674" stroke="#628674" points="676.63,-170.78 669.22,-170.51 674.84,-175.34 676.63,-170.78"/>
<text text-anchor="middle" x="759" y="-191.5" font-family="Arial" font-size="10.00" fill="#4d6c5a">mismatch</text>
</g>
<!-- verify&#45;&gt;storage -->
<g id="edge17" class="edge">
<title>verify&#45;&gt;storage</title>
<path fill="none" stroke="#628674" d="M965.75,-224.46C1011.45,-210.96 1066.39,-192.54 1113.5,-170.5 1170.73,-143.73 1231.31,-104.49 1273.17,-75.43"/>
<polygon fill="#628674" stroke="#628674" points="1274.61,-77.42 1278.95,-71.4 1271.81,-73.4 1274.61,-77.42"/>
</g>
<!-- management -->
<g id="node15" class="node">
<title>management</title>
<path fill="white" stroke="#b9cec2" d="M560.5,-503.5C560.5,-503.5 332.5,-503.5 332.5,-503.5 326.5,-503.5 320.5,-497.5 320.5,-491.5 320.5,-491.5 320.5,-463.5 320.5,-463.5 320.5,-457.5 326.5,-451.5 332.5,-451.5 332.5,-451.5 560.5,-451.5 560.5,-451.5 566.5,-451.5 572.5,-457.5 572.5,-463.5 572.5,-463.5 572.5,-491.5 572.5,-491.5 572.5,-497.5 566.5,-503.5 560.5,-503.5"/>
<text text-anchor="middle" x="446.5" y="-481.1" font-family="Arial" font-size="13.00" fill="#16382d">AWS Systems Manager + IAM</text>
<text text-anchor="middle" x="446.5" y="-467.1" font-family="Arial" font-size="13.00" fill="#16382d">Host administration + scoped access</text>
</g>
<!-- management&#45;&gt;controller -->
<g id="edge18" class="edge">
<title>management&#45;&gt;controller</title>
<path fill="none" stroke="#628674" stroke-dasharray="5,2" d="M572.74,-474.66C767.88,-470.48 1124.46,-457.06 1163.5,-414.5 1198.36,-376.5 1172.22,-311.18 1153.71,-275.87"/>
<polygon fill="#628674" stroke="#628674" points="1155.83,-274.64 1150.35,-269.64 1151.51,-276.97 1155.83,-274.64"/>
</g>
</g>
</svg>
